<svg width="161" height="46" viewBox="0 0 161 46" fill="none" xmlns="http://www.w3.org/2000/svg">
<path d="M159.811 40.695C159.811 43.1464 157.774 45.1321 155.255 45.1321H6.15106C3.6329 45.1321 1.5889 43.1464 1.5889 40.695V5.31079C1.5889 2.86055 3.6329 0.86792 6.15106 0.86792H155.254C157.774 0.86792 159.81 2.86055 159.81 5.31079L159.811 40.695Z" fill="black"/>
<path d="M154.774 0.92144C157.518 0.92144 159.75 3.08775 159.75 5.75V40.25C159.75 42.9123 157.518 45.0786 154.774 45.0786H6.62594C3.88223 45.0786 1.64964 42.9123 1.64964 40.25V5.75C1.64964 3.08775 3.88223 0.92144 6.62594 0.92144H154.774ZM154.774 3.8147e-06H6.62594C3.36816 3.8147e-06 0.700012 2.58894 0.700012 5.75V40.25C0.700012 43.4111 3.36816 46 6.62594 46H154.774C158.032 46 160.7 43.4111 160.7 40.25V5.75C160.7 2.58894 158.032 3.8147e-06 154.774 3.8147e-06Z" fill="#A6A6A6"/>
<path d="M36.4073 22.7516C36.3729 19.0451 39.535 17.2419 39.6796 17.158C37.8888 14.6245 35.1131 14.2784 34.1376 14.2508C31.8064 14.0127 29.5451 15.6043 28.3575 15.6043C27.1462 15.6043 25.3175 14.2738 23.3465 14.3129C20.8102 14.3508 18.4375 15.7757 17.1362 17.9883C14.4505 22.4997 16.4535 29.1295 19.0265 32.7761C20.3136 34.5621 21.8176 36.5562 23.7862 36.486C25.7122 36.409 26.4316 35.2946 28.7557 35.2946C31.0585 35.2946 31.7341 36.486 33.7418 36.4412C35.8088 36.409 37.1101 34.6472 38.3522 32.8451C39.8396 30.7981 40.4369 28.7822 40.4606 28.6787C40.412 28.6626 36.4464 27.194 36.4073 22.7516Z" fill="white"/>
<path d="M32.6147 11.8519C33.6505 10.5949 34.3593 8.88489 34.1625 7.14954C32.6633 7.21394 30.7883 8.15579 29.7086 9.38514C28.7534 10.4684 27.9 12.244 28.1205 13.9138C29.8046 14.0357 31.5338 13.0893 32.6147 11.8519Z" fill="white"/>
<path d="M58.8334 11.5103C58.8334 12.8638 58.415 13.8827 57.5794 14.567C56.8055 15.1983 55.7057 15.5146 54.2811 15.5146C53.5747 15.5146 52.9703 15.4847 52.4642 15.4249V8.0292C53.1243 7.9257 53.8354 7.8728 54.6034 7.8728C55.9605 7.8728 56.9833 8.15915 57.6731 8.73185C58.4458 9.3793 58.8334 10.3051 58.8334 11.5103ZM57.5237 11.5436C57.5237 10.6662 57.2843 9.9934 56.8055 9.5242C56.3267 9.05615 55.6274 8.82155 54.7066 8.82155C54.3154 8.82155 53.9824 8.84685 53.7063 8.89975V14.5221C53.8591 14.5451 54.1388 14.5555 54.5454 14.5555C55.4959 14.5555 56.2295 14.299 56.7463 13.7861C57.263 13.2732 57.5237 12.5257 57.5237 11.5436Z" fill="white"/>
<path d="M65.7774 12.6925C65.7774 13.5262 65.532 14.2093 65.0414 14.7452C64.527 15.2961 63.8455 15.5709 62.9946 15.5709C62.1744 15.5709 61.5214 15.3076 61.0343 14.7786C60.5483 14.2507 60.3054 13.5849 60.3054 12.7822C60.3054 11.9427 60.5554 11.2538 61.058 10.7191C61.5605 10.1843 62.236 9.91638 63.087 9.91638C63.9071 9.91638 64.5661 10.1797 65.0651 10.7076C65.5391 11.2205 65.7774 11.8829 65.7774 12.6925ZM64.4891 12.7316C64.4891 12.2313 64.3777 11.8024 64.156 11.4447C63.8953 11.0123 63.5243 10.7961 63.042 10.7961C62.543 10.7961 62.1637 11.0123 61.903 11.4447C61.6802 11.8024 61.57 12.2382 61.57 12.7534C61.57 13.2537 61.6814 13.6826 61.903 14.0403C62.172 14.4727 62.5466 14.6889 63.0301 14.6889C63.5042 14.6889 63.8763 14.4692 64.1442 14.0288C64.3741 13.6642 64.4891 13.2318 64.4891 12.7316Z" fill="white"/>
<path d="M75.0882 10.0267L73.34 15.4478H72.2023L71.4781 13.0938C71.2944 12.5061 71.1451 11.9219 71.0289 11.3423H71.0064C70.8985 11.938 70.7492 12.5211 70.5572 13.0938L69.788 15.4478H68.6372L66.9934 10.0267H68.2698L68.9015 12.6039C69.0544 13.2134 69.18 13.7941 69.2808 14.3438H69.3033C69.3957 13.8907 69.5486 13.3134 69.7643 12.6154L70.5572 10.0279H71.5694L72.3291 12.5602C72.5128 13.1777 72.6621 13.7723 72.7771 14.345H72.8114C72.8956 13.7872 73.0224 13.1927 73.1907 12.5602L73.8686 10.0279H75.0882V10.0267Z" fill="white"/>
<path d="M81.5273 15.4479H80.2852V12.3429C80.2852 11.3861 79.9107 10.9077 79.1593 10.9077C78.7907 10.9077 78.4932 11.0388 78.2621 11.3022C78.0334 11.5655 77.9172 11.876 77.9172 12.2314V15.4468H76.6751V11.5759C76.6751 11.0998 76.6597 10.5834 76.6301 10.0245H77.7217L77.7797 10.8721H77.8141C77.9587 10.6087 78.1744 10.3914 78.4577 10.2177C78.7943 10.0153 79.1711 9.91296 79.5836 9.91296C80.1051 9.91296 80.5388 10.0763 80.8837 10.404C81.3128 10.8054 81.5273 11.4045 81.5273 12.2003V15.4479Z" fill="white"/>
<path d="M84.9525 15.4479H83.7116V7.53931H84.9525V15.4479Z" fill="white"/>
<path d="M92.2651 12.6925C92.2651 13.5262 92.0197 14.2093 91.5291 14.7452C91.0147 15.2961 90.332 15.5709 89.4823 15.5709C88.6609 15.5709 88.0079 15.3076 87.522 14.7786C87.036 14.2507 86.7931 13.5849 86.7931 12.7822C86.7931 11.9427 87.0432 11.2538 87.5457 10.7191C88.0482 10.1843 88.7237 9.91638 89.5735 9.91638C90.3949 9.91638 91.0526 10.1797 91.5528 10.7076C92.0269 11.2205 92.2651 11.8829 92.2651 12.6925ZM90.9756 12.7316C90.9756 12.2313 90.8642 11.8024 90.6426 11.4447C90.383 11.0123 90.0109 10.7961 89.5297 10.7961C89.0295 10.7961 88.6503 11.0123 88.3907 11.4447C88.1679 11.8024 88.0577 12.2382 88.0577 12.7534C88.0577 13.2537 88.1691 13.6826 88.3907 14.0403C88.6597 14.4727 89.0343 14.6889 89.5178 14.6889C89.9919 14.6889 90.3629 14.4692 90.6307 14.0288C90.8618 13.6642 90.9756 13.2318 90.9756 12.7316Z" fill="white"/>
<path d="M98.2763 15.4479H97.1611L97.0686 14.8234H97.0343C96.6526 15.3214 96.1086 15.5709 95.4023 15.5709C94.8749 15.5709 94.4482 15.4065 94.127 15.0799C93.8354 14.7832 93.6897 14.414 93.6897 13.9759C93.6897 13.3135 93.9741 12.8086 94.5466 12.459C95.1178 12.1094 95.9214 11.9381 96.956 11.9461V11.8449C96.956 11.1308 96.5697 10.7743 95.7957 10.7743C95.2446 10.7743 94.7587 10.9088 94.3392 11.1756L94.0867 10.3844C94.6058 10.0728 95.247 9.91638 96.0031 9.91638C97.4633 9.91638 98.1957 10.6639 98.1957 12.1589V14.1553C98.1957 14.6969 98.223 15.1282 98.2763 15.4479ZM96.9868 13.5849V12.7488C95.6168 12.7258 94.9317 13.0904 94.9317 13.8413C94.9317 14.1242 95.01 14.3358 95.17 14.4773C95.33 14.6187 95.5338 14.6889 95.7768 14.6889C96.0494 14.6889 96.3042 14.6049 96.5365 14.4382C96.77 14.2703 96.9134 14.0575 96.9667 13.7965C96.9797 13.7378 96.9868 13.6665 96.9868 13.5849Z" fill="white"/>
<path d="M105.334 15.4479H104.232L104.174 14.5773H104.139C103.787 15.2397 103.188 15.5709 102.345 15.5709C101.672 15.5709 101.111 15.3145 100.667 14.8016C100.222 14.2887 100.001 13.6228 100.001 12.8052C100.001 11.9277 100.241 11.217 100.725 10.6742C101.193 10.1682 101.767 9.91521 102.449 9.91521C103.2 9.91521 103.725 10.1602 104.023 10.6512H104.047V7.53931H105.29V13.9874C105.29 14.5152 105.304 15.0017 105.334 15.4479ZM104.047 13.1617V12.2578C104.047 12.1014 104.035 11.9749 104.013 11.8783C103.943 11.5885 103.792 11.3447 103.563 11.148C103.332 10.9514 103.054 10.8525 102.733 10.8525C102.269 10.8525 101.907 11.0307 101.64 11.3884C101.376 11.746 101.242 12.2026 101.242 12.7603C101.242 13.2962 101.368 13.7309 101.623 14.0656C101.892 14.4221 102.255 14.6003 102.709 14.6003C103.117 14.6003 103.443 14.452 103.69 14.1541C103.93 13.8793 104.047 13.5481 104.047 13.1617Z" fill="white"/>
<path d="M115.957 12.6925C115.957 13.5262 115.712 14.2093 115.221 14.7452C114.707 15.2961 114.026 15.5709 113.174 15.5709C112.355 15.5709 111.702 15.3076 111.214 14.7786C110.728 14.2507 110.485 13.5849 110.485 12.7822C110.485 11.9427 110.735 11.2538 111.238 10.7191C111.74 10.1843 112.416 9.91638 113.268 9.91638C114.087 9.91638 114.747 10.1797 115.245 10.7076C115.719 11.2205 115.957 11.8829 115.957 12.6925ZM114.67 12.7316C114.67 12.2313 114.558 11.8024 114.337 11.4447C114.075 11.0123 113.705 10.7961 113.222 10.7961C112.724 10.7961 112.344 11.0123 112.083 11.4447C111.86 11.8024 111.75 12.2382 111.75 12.7534C111.75 13.2537 111.861 13.6826 112.083 14.0403C112.352 14.4727 112.726 14.6889 113.21 14.6889C113.684 14.6889 114.057 14.4692 114.325 14.0288C114.554 13.6642 114.67 13.2318 114.67 12.7316Z" fill="white"/>
<path d="M122.635 15.4479H121.395V12.3429C121.395 11.3861 121.02 10.9077 120.267 10.9077C119.899 10.9077 119.601 11.0388 119.371 11.3022C119.142 11.5655 119.027 11.876 119.027 12.2314V15.4468H117.783V11.5759C117.783 11.0998 117.769 10.5834 117.739 10.0245H118.83L118.888 10.8721H118.922C119.068 10.6087 119.284 10.3914 119.566 10.2177C119.904 10.0153 120.279 9.91296 120.693 9.91296C121.213 9.91296 121.647 10.0763 121.992 10.404C122.422 10.8054 122.635 11.4045 122.635 12.2003V15.4479Z" fill="white"/>
<path d="M130.995 10.9296H129.627V13.5631C129.627 14.2324 129.87 14.5671 130.351 14.5671C130.574 14.5671 130.759 14.5487 130.904 14.5107L130.936 15.425C130.691 15.5147 130.369 15.5595 129.972 15.5595C129.481 15.5595 129.099 15.4146 128.823 15.1248C128.546 14.835 128.408 14.3474 128.408 13.6632V10.9296H127.592V10.0269H128.408V9.03326L129.626 8.67676V10.0257H130.993V10.9296H130.995Z" fill="white"/>
<path d="M137.57 15.4479H136.327V12.3659C136.327 11.3941 135.952 10.9077 135.202 10.9077C134.626 10.9077 134.232 11.1894 134.017 11.7529C133.98 11.8714 133.959 12.0163 133.959 12.1865V15.4467H132.718V7.53931H133.959V10.8065H133.982C134.374 10.2119 134.934 9.91521 135.661 9.91521C136.175 9.91521 136.6 10.0785 136.938 10.4063C137.359 10.8145 137.57 11.4217 137.57 12.2244V15.4479Z" fill="white"/>
<path d="M144.353 12.4809C144.353 12.6971 144.336 12.8788 144.307 13.0271H140.582C140.598 13.563 140.776 13.9713 141.121 14.2542C141.436 14.5072 141.843 14.6337 142.34 14.6337C142.891 14.6337 143.394 14.5486 143.847 14.3772L144.041 15.2144C143.511 15.4375 142.888 15.5491 142.166 15.5491C141.301 15.5491 140.619 15.3018 140.126 14.8073C139.631 14.3128 139.386 13.6493 139.386 12.8167C139.386 11.999 139.614 11.3182 140.075 10.7754C140.557 10.1958 141.207 9.90601 142.029 9.90601C142.832 9.90601 143.443 10.1958 143.855 10.7754C144.188 11.2354 144.353 11.8047 144.353 12.4809ZM143.168 12.1692C143.177 11.8116 143.095 11.5034 142.927 11.2435C142.711 10.9088 142.383 10.7409 141.939 10.7409C141.533 10.7409 141.203 10.9042 140.95 11.232C140.744 11.493 140.622 11.8047 140.582 12.1692H143.168Z" fill="white"/>
<path d="M64.2793 36.2296H61.5877L60.1133 31.7343H54.9886L53.5842 36.2296H50.9637L56.041 20.9254H59.177L64.2793 36.2296ZM59.6689 29.8483L58.3356 25.852C58.1945 25.4438 57.9302 24.4824 57.5403 22.969H57.4929C57.3376 23.6199 57.0876 24.5813 56.7439 25.852L55.4342 29.8483H59.6689Z" fill="white"/>
<path d="M77.3364 30.5762C77.3364 32.453 76.8138 33.9365 75.7684 35.0256C74.8321 35.995 73.6695 36.4792 72.2816 36.4792C70.7836 36.4792 69.7074 35.9571 69.052 34.9129H69.0046V40.7261H66.4778V28.8271C66.4778 27.6472 66.4458 26.4362 66.3841 25.1942H68.6064L68.7474 26.9434H68.7948C69.6375 25.6255 70.9163 24.9677 72.6324 24.9677C73.9741 24.9677 75.0941 25.4817 75.9901 26.511C76.8884 27.5414 77.3364 28.8961 77.3364 30.5762ZM74.7622 30.6659C74.7622 29.5918 74.5133 28.7063 74.0132 28.0094C73.4668 27.2826 72.7332 26.9192 71.8135 26.9192C71.1901 26.9192 70.6236 27.1216 70.1175 27.5207C69.6102 27.9232 69.2784 28.4487 69.1231 29.0996C69.0449 29.4032 69.0058 29.6516 69.0058 29.8471V31.6871C69.0058 32.4898 69.2594 33.1672 69.7667 33.7203C70.2739 34.2735 70.9329 34.5495 71.7436 34.5495C72.6953 34.5495 73.436 34.193 73.9658 33.4823C74.4967 32.7704 74.7622 31.832 74.7622 30.6659Z" fill="white"/>
<path d="M90.4174 30.5762C90.4174 32.453 89.8947 33.9365 88.8482 35.0256C87.9131 35.995 86.7504 36.4792 85.3625 36.4792C83.8645 36.4792 82.7883 35.9571 82.1341 34.9129H82.0867V40.7261H79.5599V28.8271C79.5599 27.6472 79.5279 26.4362 79.4662 25.1942H81.6885L81.8295 26.9434H81.8769C82.7184 25.6255 83.9972 24.9677 85.7145 24.9677C87.055 24.9677 88.175 25.4817 89.0734 26.511C89.9682 27.5414 90.4174 28.8961 90.4174 30.5762ZM87.8431 30.6659C87.8431 29.5918 87.5931 28.7063 87.0929 28.0094C86.5465 27.2826 85.8153 26.9192 84.8944 26.9192C84.2698 26.9192 83.7045 27.1216 83.1972 27.5207C82.6899 27.9232 82.3593 28.4487 82.204 29.0996C82.127 29.4032 82.0867 29.6516 82.0867 29.8471V31.6871C82.0867 32.4898 82.3403 33.1672 82.8452 33.7203C83.3525 34.2723 84.0114 34.5495 84.8245 34.5495C85.7762 34.5495 86.5169 34.193 87.0467 33.4823C87.5777 32.7704 87.8431 31.832 87.8431 30.6659Z" fill="white"/>
<path d="M105.043 31.9378C105.043 33.2396 104.577 34.2988 103.642 35.1164C102.614 36.01 101.184 36.4562 99.3454 36.4562C97.6482 36.4562 96.2876 36.1388 95.2576 35.5028L95.8431 33.4593C96.9525 34.1102 98.1696 34.4368 99.4959 34.4368C100.448 34.4368 101.188 34.2275 101.72 33.8112C102.25 33.3949 102.515 32.836 102.515 32.1391C102.515 31.5181 102.296 30.9948 101.859 30.5705C101.424 30.1461 100.698 29.7517 99.6831 29.3871C96.9216 28.3878 95.5421 26.9238 95.5421 24.9987C95.5421 23.7406 96.0256 22.7091 96.9939 21.9064C97.9587 21.1025 99.2458 20.7012 100.855 20.7012C102.291 20.7012 103.483 20.9438 104.435 21.428L103.803 23.4267C102.914 22.9575 101.909 22.7229 100.784 22.7229C99.8953 22.7229 99.2008 22.9356 98.703 23.3588C98.2822 23.7372 98.0713 24.1983 98.0713 24.7446C98.0713 25.3495 98.3119 25.8497 98.7954 26.243C99.2162 26.6064 99.9806 26.9997 101.09 27.4241C102.447 27.9542 103.444 28.5741 104.085 29.2848C104.724 29.9932 105.043 30.8798 105.043 31.9378Z" fill="white"/>
<path d="M113.397 27.0342H110.612V32.3921C110.612 33.7548 111.102 34.4356 112.086 34.4356C112.538 34.4356 112.912 34.3977 113.208 34.3218L113.278 36.1836C112.781 36.3642 112.125 36.455 111.313 36.455C110.315 36.455 109.536 36.1595 108.973 35.5695C108.412 34.9784 108.13 33.9871 108.13 32.5945V27.0319H106.471V25.1919H108.13V23.1714L110.612 22.4446V25.1919H113.397V27.0342Z" fill="white"/>
<path d="M125.963 30.6211C125.963 32.3174 125.463 33.71 124.465 34.7991C123.419 35.9203 122.03 36.4792 120.298 36.4792C118.629 36.4792 117.301 35.9422 116.31 34.8681C115.319 33.794 114.824 32.4381 114.824 30.804C114.824 29.0939 115.333 27.6932 116.356 26.6042C117.377 25.514 118.754 24.9689 120.485 24.9689C122.154 24.9689 123.497 25.5059 124.51 26.5812C125.48 27.6242 125.963 28.9709 125.963 30.6211ZM123.342 30.7005C123.342 29.6827 123.118 28.8099 122.664 28.0819C122.134 27.201 121.377 26.7617 120.395 26.7617C119.38 26.7617 118.608 27.2022 118.078 28.0819C117.624 28.811 117.4 29.6977 117.4 30.7465C117.4 31.7642 117.624 32.6371 118.078 33.3639C118.625 34.2448 119.388 34.6841 120.373 34.6841C121.338 34.6841 122.095 34.2356 122.641 33.3409C123.107 32.5991 123.342 31.7171 123.342 30.7005Z" fill="white"/>
<path d="M134.177 27.3505C133.927 27.3056 133.66 27.2826 133.38 27.2826C132.491 27.2826 131.804 27.6081 131.32 28.2601C130.9 28.8351 130.689 29.5619 130.689 30.4394V36.2296H128.163L128.187 28.6695C128.187 27.3976 128.155 26.2396 128.092 25.1954H130.293L130.385 27.3068H130.455C130.722 26.5811 131.143 25.9969 131.719 25.5588C132.282 25.1643 132.89 24.9677 133.545 24.9677C133.779 24.9677 133.99 24.9838 134.177 25.0125V27.3505Z" fill="white"/>
<path d="M145.477 30.1899C145.477 30.6292 145.448 30.9995 145.385 31.3019H137.805C137.834 32.3921 138.2 33.2259 138.904 33.8009C139.543 34.3149 140.369 34.5725 141.384 34.5725C142.506 34.5725 143.53 34.3989 144.451 34.0504L144.847 35.7524C143.771 36.2078 142.5 36.4344 141.034 36.4344C139.271 36.4344 137.886 35.9307 136.879 34.9244C135.874 33.9182 135.37 32.5669 135.37 30.8718C135.37 29.2078 135.838 27.822 136.776 26.7169C137.757 25.537 139.083 24.947 140.752 24.947C142.391 24.947 143.632 25.537 144.475 26.7169C145.142 27.6541 145.477 28.8133 145.477 30.1899ZM143.068 29.5539C143.085 28.8271 142.92 28.1992 142.577 27.6691C142.14 26.9871 141.468 26.6467 140.564 26.6467C139.738 26.6467 139.066 26.9791 138.552 27.6461C138.132 28.1762 137.882 28.8122 137.805 29.5528H143.068V29.5539Z" fill="white"/>
</svg>
