<svg width="724" height="506" viewBox="0 0 724 506" fill="none" xmlns="http://www.w3.org/2000/svg">
<path d="M477.041 457.747C489.343 451.924 685.287 454.682 654.118 311.97C622.949 169.258 423.853 186.243 375.348 87.0453C326.843 -12.109 196.52 30.3982 122.844 104.031C47.9853 178.889 -24.5089 517.721 406.035 364.984C573.569 305.535 468.767 452.537 468.767 452.537" fill="#F5F6FA"/>
<path d="M365.805 42.3932C342.34 38.4971 319.095 50.667 309.07 72.249C306.137 78.5528 303.598 85.9073 301.715 94.4438C291.953 138.921 286.569 169.258 245.9 199.639C205.231 230.02 294.273 324.228 339.757 285.223C385.241 246.218 462.201 295.248 479.58 266.399C496.916 237.55 465.572 206.118 480.675 182.26C495.778 158.402 510.005 70.5855 468.811 41.2988C427.574 12.0122 375.654 5.53323 365.805 42.3932Z" fill="#887040"/>
<path d="M353.678 226.737C353.678 226.737 255.093 217.806 274.618 451.924H489.342C489.342 451.924 509.655 231.596 410.238 226.737H353.678Z" fill="#2A94F4"/>
<path d="M360.289 158.708C360.289 158.708 352.715 233.26 353.766 248.45C354.817 263.641 400.607 276.643 409.056 254.973C414.178 241.84 400.607 158.752 400.607 158.752H360.289V158.708Z" fill="#FCD2B1"/>
<path d="M446.135 66.2955C446.135 66.2955 501.425 193.817 417.899 205.549C396.317 208.57 365.148 184.712 360.289 167.376C355.999 152.186 348.732 163.83 343.172 150.872C335.599 133.186 340.808 82.2303 357.049 115.019C369 139.14 393.909 70.1917 417.768 81.0483C441.626 91.9049 446.135 66.2955 446.135 66.2955Z" fill="#FFE3CA"/>
<path d="M319.927 485.195L241.522 237.55C241.522 237.55 178.703 266.443 140.967 290.914C140.967 290.914 164.038 354.215 181.154 388.886C198.271 423.557 207.114 434.764 235.525 449.298C263.98 463.832 319.927 485.195 319.927 485.195Z" fill="#0E538C"/>
<path d="M319.927 485.195L241.522 237.55C241.522 237.55 309.508 225.03 354.466 223.322C354.466 223.322 372.021 288.375 377.975 326.592C383.928 364.765 383.14 379.036 368.256 407.316C353.416 435.508 319.927 485.195 319.927 485.195Z" fill="#0E538C"/>
<path d="M151.911 294.591C158.303 311.795 175.77 357.673 189.209 384.902C205.363 417.647 213.024 427.672 239.64 441.33C261.572 452.537 300.84 468.166 316.468 474.251L244.236 246.13C236.488 249.763 186.232 273.359 151.911 294.591Z" fill="#F9F3ED"/>
<path d="M360.332 403.114C374.253 376.629 374.735 364.021 369.088 327.949C364.447 297.962 352.278 250.377 347.637 232.603C307.319 235.011 252.642 244.598 244.237 246.13L316.468 474.251C325.749 460.286 348.863 424.914 360.332 403.114Z" fill="#F9F3ED"/>
<path d="M158.478 296.868C166.051 316.961 181.68 357.586 194.025 382.539C209.522 413.927 216.307 423.339 242.091 436.559C262.097 446.803 296.769 460.768 314.367 467.684L245.9 251.296C238.02 254.973 191.748 276.774 158.478 296.868Z" fill="#0E538C"/>
<path d="M355.605 400.618C369.088 374.965 369.219 363.408 363.835 328.781C359.545 301.289 348.994 259.044 343.61 238.294C304.824 241.008 254.48 249.807 245.9 251.34L314.411 467.684C324.786 451.881 345.142 420.493 355.605 400.618Z" fill="#0E538C"/>
<path d="M412.077 473.2L549.229 488.216C553.476 488.697 557.284 485.633 557.722 481.386L583.813 243.153C584.294 238.907 581.23 235.098 576.984 234.661L432.17 218.77L405.204 464.664C404.766 468.91 407.83 472.719 412.077 473.2Z" fill="#D3D3D3"/>
<path d="M574.094 234.354L568.972 233.785L432.214 218.813L427.092 218.244C421.226 217.588 415.973 221.834 415.316 227.7L389.838 460.067C389.181 465.933 393.428 471.186 399.294 471.843L530.58 486.246C536.446 486.902 541.699 482.656 542.356 476.79L554.001 370.587L559.123 371.156C564.989 371.813 570.242 367.567 570.899 361.701L583.55 246.13C584.163 240.22 579.96 234.967 574.094 234.354Z" fill="#0E538C"/>
<path d="M339.057 364.984V326.066C339.057 313.634 350.526 304.353 359.807 304.353H382.133C397.762 304.353 406.079 313.59 406.079 326.066V364.984H425.21V326.066C425.21 303.084 408.312 285.223 382.133 285.223H359.807C340.02 285.223 319.926 303.084 319.926 326.066V364.984H339.057Z" fill="#CCE9FF"/>
<path d="M434.753 464.532C434.753 475.082 428.362 483.05 417.855 483.05H330.433C319.883 483.05 310.339 475.082 310.339 464.532V370.719C310.339 360.168 319.927 358.592 330.433 358.592H417.855C428.405 358.592 434.753 360.168 434.753 370.719V464.532Z" fill="#887040"/>
<path d="M389.75 407.448C389.75 398.517 382.746 391.163 373.816 391.163C364.885 391.163 358.187 398.517 358.187 407.448C358.187 413.839 361.383 418.917 367.775 421.806V451.794C367.775 455.952 370.007 459.148 374.166 459.148C378.325 459.148 380.557 455.952 380.557 451.794V421.806C386.905 418.917 389.75 413.795 389.75 407.448Z" fill="#887040"/>
<path opacity="0.13" d="M389.75 407.448C389.75 398.517 382.746 391.163 373.816 391.163C364.885 391.163 358.187 398.517 358.187 407.448C358.187 413.839 361.383 418.917 367.775 421.806V451.794C367.775 455.952 370.007 459.148 374.166 459.148C378.325 459.148 380.557 455.952 380.557 451.794V421.806C386.905 418.917 389.75 413.795 389.75 407.448Z" fill="black"/>
<path d="M289.414 449.167L315.067 442.513C315.067 442.513 318.175 430.299 324.042 425.659C329.908 421.018 336.912 417.516 340.064 417.91C343.172 418.304 336.562 426.884 333.41 430.781C330.258 434.677 334.986 435.859 347.462 427.278C359.938 418.698 370.489 415.94 373.597 433.495C376.705 451.093 358.757 459.279 336.912 459.279C315.067 459.279 297.907 471.581 297.907 471.581C297.907 471.581 265.337 468.691 289.414 449.167Z" fill="#FFE3CA"/>
<path d="M181.198 388.886C181.198 388.886 171.611 389.412 162.943 406.747C154.275 424.083 165.351 507.04 316.512 474.251L306.575 442.819C306.531 442.819 189.822 407.535 181.198 388.886Z" fill="#2A94F4"/>
<path d="M459.925 449.167L434.271 442.513C434.271 442.513 431.163 430.299 425.297 425.659C419.431 421.018 412.427 417.516 409.275 417.91C406.167 418.304 412.777 426.884 415.929 430.781C419.081 434.677 414.353 435.859 401.877 427.278C389.4 418.698 378.85 415.94 375.742 433.495C372.634 451.093 390.582 459.279 412.427 459.279C434.271 459.279 451.432 471.581 451.432 471.581C451.432 471.581 484.002 468.691 459.925 449.167Z" fill="#FFE3CA"/>
<path d="M567.922 388.886C567.922 388.886 577.509 389.412 586.177 406.747C594.844 424.083 583.769 507.04 432.608 474.251L442.545 442.819C442.589 442.819 559.254 407.535 567.922 388.886Z" fill="#2A94F4"/>
</svg>
