<svg width="48" height="48" viewBox="0 0 48 48" fill="none" xmlns="http://www.w3.org/2000/svg">
<mask id="mask0_2215_29376" style="mask-type:alpha" maskUnits="userSpaceOnUse" x="0" y="0" width="48" height="48">
<rect width="48" height="48" fill="#D9D9D9"/>
</mask>
<g mask="url(#mask0_2215_29376)">
<path d="M24 40.3C23.5667 40.3 23.15 40.2167 22.75 40.05C22.35 39.8833 22 39.6167 21.7 39.25L5.24999 19.5C4.88332 19.0333 4.66665 18.5083 4.59999 17.925C4.53332 17.3417 4.63332 16.7833 4.89999 16.25L9.14999 7.65C9.41665 7.15 9.79165 6.75 10.275 6.45C10.7583 6.15 11.2833 6 11.85 6H36.15C36.7167 6 37.2417 6.15 37.725 6.45C38.2083 6.75 38.5833 7.15 38.85 7.65L43.1 16.25C43.3667 16.7833 43.4667 17.3417 43.4 17.925C43.3333 18.5083 43.1167 19.0333 42.75 19.5L26.3 39.25C26 39.6167 25.65 39.8833 25.25 40.05C24.85 40.2167 24.4333 40.3 24 40.3ZM17.9 16.5H30.1L26.35 9H21.65L17.9 16.5ZM22.5 35.55V19.5H9.14999L22.5 35.55ZM25.5 35.55L38.85 19.5H25.5V35.55ZM33.45 16.5H39.75L35.95 9H29.7L33.45 16.5ZM8.24999 16.5H14.55L18.3 9H12.05L8.24999 16.5Z" fill="#407B87"/>
</g>
</svg>
