<svg width="49" height="49" viewBox="0 0 49 49" fill="none" xmlns="http://www.w3.org/2000/svg">
<g clip-path="url(#clip0_2215_29630)">
<path d="M24.5 48.3486C37.7549 48.3486 48.5 37.6035 48.5 24.3486C48.5 11.0938 37.7549 0.348633 24.5 0.348633C11.2452 0.348633 0.500031 11.0938 0.500031 24.3486C0.500031 37.6035 11.2452 48.3486 24.5 48.3486Z" fill="#3B5998"/>
<path d="M29.2706 15.0154H26.2873C24.517 15.0154 22.5478 15.76 22.5478 18.3262C22.5565 19.2204 22.5478 20.0767 22.5478 21.0405H20.4997V24.2996H22.6112V33.682H26.4911V24.2377H29.052L29.2837 21.0314H26.4243C26.4243 21.0314 26.4307 19.6051 26.4243 19.1908C26.4243 18.1767 27.4795 18.2348 27.543 18.2348C28.0451 18.2348 29.0214 18.2363 29.2721 18.2348V15.0154H29.2706Z" fill="white"/>
</g>
<defs>
<clipPath id="clip0_2215_29630">
<rect width="48" height="48" fill="white" transform="translate(0.5 0.348633)"/>
</clipPath>
</defs>
</svg>
