<svg width="72" height="72" viewBox="0 0 72 72" fill="none" xmlns="http://www.w3.org/2000/svg">
<rect width="72" height="72" rx="36" fill="#F1FDF2"/>
<path d="M56 32H16M34 40H24M16 28.4L16 43.6C16 45.8402 16 46.9603 16.436 47.816C16.8195 48.5686 17.4314 49.1805 18.184 49.564C19.0397 50 20.1598 50 22.4 50L49.6 50C51.8402 50 52.9603 50 53.816 49.564C54.5686 49.1805 55.1805 48.5686 55.564 47.816C56 46.9603 56 45.8402 56 43.6V28.4C56 26.1598 56 25.0397 55.564 24.184C55.1805 23.4314 54.5686 22.8195 53.816 22.436C52.9603 22 51.8402 22 49.6 22L22.4 22C20.1598 22 19.0397 22 18.184 22.436C17.4314 22.8195 16.8195 23.4314 16.436 24.184C16 25.0397 16 26.1598 16 28.4Z" stroke="#408743" stroke-width="3.2" stroke-linecap="round" stroke-linejoin="round"/>
</svg>
