<svg width="49" height="49" viewBox="0 0 49 49" fill="none" xmlns="http://www.w3.org/2000/svg">
<rect x="0.5" y="0.348633" width="48" height="48" rx="24" fill="#0070AC"/>
<g clip-path="url(#clip0_2215_29638)">
<path d="M17.5 21.7236H20.6308V31.3486H17.5V21.7236ZM29.1585 21.8365C29.1252 21.826 29.0938 21.8146 29.0588 21.805C29.0167 21.7955 28.9744 21.7873 28.9319 21.7805C28.747 21.7427 28.5588 21.7237 28.3701 21.7236C26.5449 21.7236 25.3872 23.051 25.0058 23.5638V21.7236H21.875V31.3486H25.0058V26.0986C25.0058 26.0986 27.3717 22.8034 28.3701 25.2236V31.3486H31.5V24.8535C31.4987 24.1624 31.2681 23.4912 30.8444 22.9452C30.4206 22.3992 29.8277 22.0093 29.1585 21.8365Z" fill="white"/>
<path d="M19.0312 20.4111C19.8769 20.4111 20.5625 19.7256 20.5625 18.8799C20.5625 18.0342 19.8769 17.3486 19.0312 17.3486C18.1856 17.3486 17.5 18.0342 17.5 18.8799C17.5 19.7256 18.1856 20.4111 19.0312 20.4111Z" fill="white"/>
</g>
<defs>
<clipPath id="clip0_2215_29638">
<rect width="14" height="14" fill="white" transform="translate(17.5 17.3486)"/>
</clipPath>
</defs>
</svg>
