<svg width="161" height="46" viewBox="0 0 161 46" fill="none" xmlns="http://www.w3.org/2000/svg">
<path d="M154.574 46H6.42593C3.16815 46 0.5 43.4111 0.5 40.25V5.75C0.5 2.58894 3.16815 9.53674e-07 6.42593 9.53674e-07H154.574C157.832 9.53674e-07 160.5 2.58894 160.5 5.75V40.25C160.5 43.4111 157.832 46 154.574 46Z" fill="black"/>
<path d="M154.574 0.921436C157.318 0.921436 159.55 3.08775 159.55 5.75V40.25C159.55 42.9122 157.318 45.0786 154.574 45.0786H6.42593C3.68222 45.0786 1.44963 42.9122 1.44963 40.25V5.75C1.44963 3.08775 3.68222 0.921436 6.42593 0.921436H154.574ZM154.574 9.53674e-07H6.42593C3.16815 9.53674e-07 0.5 2.58894 0.5 5.75V40.25C0.5 43.4111 3.16815 46 6.42593 46H154.574C157.832 46 160.5 43.4111 160.5 40.25V5.75C160.5 2.58894 157.832 9.53674e-07 154.574 9.53674e-07Z" fill="#A6A6A6"/>
<path d="M12.8674 8.66944C12.5193 9.02307 12.3178 9.57363 12.3178 10.2866V35.7189C12.3178 36.4319 12.5193 36.9824 12.8674 37.3361L12.9533 37.4137L27.6407 23.1681V22.8317L12.9533 8.58607L12.8674 8.66944Z" fill="url(#paint0_linear_2966_1307)"/>
<path d="M32.5311 27.9191L27.6407 23.1681V22.8318L32.537 18.0808L32.6466 18.1426L38.4451 21.3439C40.0999 22.2524 40.0999 23.7474 38.4451 24.6617L32.6466 27.8573L32.5311 27.9191Z" fill="url(#paint1_linear_2966_1307)"/>
<path d="M32.6467 27.8572L27.6407 22.9999L12.8674 37.3361C13.417 37.8967 14.3133 37.9643 15.3326 37.4037L32.6467 27.8572Z" fill="url(#paint2_linear_2966_1307)"/>
<path d="M32.6467 18.1427L15.3326 8.59625C14.3133 8.04138 13.417 8.10894 12.8674 8.66956L27.6407 23L32.6467 18.1427Z" fill="url(#paint3_linear_2966_1307)"/>
<path d="M56.6985 11.7803C56.6985 12.7406 56.4022 13.5097 55.8185 14.0832C55.1474 14.7632 54.2733 15.1053 53.2022 15.1053C52.1785 15.1053 51.3044 14.7574 50.5874 14.0717C49.8689 13.376 49.5103 12.5221 49.5103 11.5C49.5103 10.478 49.8689 9.62409 50.5874 8.93409C51.3044 8.24265 52.1785 7.89478 53.2022 7.89478C53.7118 7.89478 54.1978 7.99684 54.6615 8.18659C55.1237 8.37778 55.5 8.63653 55.7726 8.95565L55.1533 9.56228C54.6778 9.01746 54.0303 8.74865 53.2022 8.74865C52.4555 8.74865 51.8081 9.00165 51.2585 9.51196C50.7148 10.0237 50.4422 10.6864 50.4422 11.5C50.4422 12.3137 50.7148 12.9821 51.2585 13.4938C51.8081 13.9984 52.4555 14.2571 53.2022 14.2571C53.9948 14.2571 54.6615 13.9984 55.1874 13.4881C55.5341 13.1503 55.7311 12.6845 55.7829 12.0894H53.2022V11.2585H56.6452C56.6866 11.4382 56.6985 11.6122 56.6985 11.7803Z" fill="white" stroke="white" stroke-width="0.128" stroke-miterlimit="10"/>
<path d="M62.1607 8.89954H58.9267V11.0845H61.8422V11.9154H58.9267V14.1004H62.1607V14.9471H58.0111V8.05286H62.1607V8.89954Z" fill="white" stroke="white" stroke-width="0.128" stroke-miterlimit="10"/>
<path d="M66.0155 14.9471H65.0999V8.89954H63.1162V8.05286H68.0007V8.89954H66.0155V14.9471Z" fill="white" stroke="white" stroke-width="0.128" stroke-miterlimit="10"/>
<path d="M71.5356 14.9471V8.05286H72.4497V14.9471H71.5356Z" fill="white" stroke="white" stroke-width="0.128" stroke-miterlimit="10"/>
<path d="M76.5014 14.9471H75.5933V8.89954H73.6022V8.05286H78.4925V8.89954H76.5014V14.9471Z" fill="white" stroke="white" stroke-width="0.128" stroke-miterlimit="10"/>
<path d="M87.74 14.0602C87.0392 14.7574 86.1711 15.1053 85.1355 15.1053C84.094 15.1053 83.2259 14.7574 82.5252 14.0602C81.8259 13.3645 81.4778 12.5106 81.4778 11.5C81.4778 10.4895 81.8259 9.63559 82.5252 8.93984C83.2259 8.24265 84.094 7.89478 85.1355 7.89478C86.1652 7.89478 87.0333 8.24265 87.7341 8.94559C88.4392 9.64709 88.7874 10.4952 88.7874 11.5C88.7874 12.5106 88.4392 13.3645 87.74 14.0602ZM83.2022 13.4823C83.7296 13.9984 84.3711 14.2571 85.1355 14.2571C85.894 14.2571 86.5415 13.9984 87.0629 13.4823C87.5889 12.9663 87.8555 12.3036 87.8555 11.5C87.8555 10.6965 87.5889 10.0338 87.0629 9.51771C86.5415 9.00165 85.894 8.7429 85.1355 8.7429C84.3711 8.7429 83.7296 9.00165 83.2022 9.51771C82.6763 10.0338 82.4096 10.6965 82.4096 11.5C82.4096 12.3036 82.6763 12.9663 83.2022 13.4823Z" fill="white" stroke="white" stroke-width="0.128" stroke-miterlimit="10"/>
<path d="M90.0718 14.9471V8.05286H91.1829L94.6377 13.4147H94.6777L94.6377 12.0894V8.05286H95.5518V14.9471H94.5977L90.98 9.32073H90.94L90.98 10.6519V14.9471H90.0718Z" fill="white" stroke="white" stroke-width="0.128" stroke-miterlimit="10"/>
<path d="M81.2526 25.0155C78.4689 25.0155 76.1948 27.0711 76.1948 29.9073C76.1948 32.7205 78.4689 34.7976 81.2526 34.7976C84.0422 34.7976 86.3163 32.7205 86.3163 29.9073C86.3163 27.0711 84.0422 25.0155 81.2526 25.0155ZM81.2526 32.8714C79.7252 32.8714 78.4111 31.6481 78.4111 29.9073C78.4111 28.1435 79.7252 26.9417 81.2526 26.9417C82.78 26.9417 84.1 28.1435 84.1 29.9073C84.1 31.6481 82.78 32.8714 81.2526 32.8714ZM70.217 25.0155C67.4274 25.0155 65.1592 27.0711 65.1592 29.9073C65.1592 32.7205 67.4274 34.7976 70.217 34.7976C73.0052 34.7976 75.2748 32.7205 75.2748 29.9073C75.2748 27.0711 73.0052 25.0155 70.217 25.0155ZM70.217 32.8714C68.6881 32.8714 67.3696 31.6481 67.3696 29.9073C67.3696 28.1435 68.6881 26.9417 70.217 26.9417C71.7444 26.9417 73.0585 28.1435 73.0585 29.9073C73.0585 31.6481 71.7444 32.8714 70.217 32.8714ZM57.0852 26.5148V28.5934H62.2007C62.0511 29.7549 61.6511 30.6088 61.0378 31.2039C60.2911 31.9226 59.1281 32.7205 57.0852 32.7205C53.937 32.7205 51.4718 30.2551 51.4718 27.2005C51.4718 24.1458 53.937 21.6805 57.0852 21.6805C58.7874 21.6805 60.0259 22.3259 60.94 23.1625L62.4496 21.6977C61.1711 20.5132 59.4704 19.6033 57.0852 19.6033C52.7681 19.6033 49.14 23.0116 49.14 27.2005C49.14 31.3893 52.7681 34.7976 57.0852 34.7976C59.4185 34.7976 61.1711 34.0559 62.5489 32.6644C63.9607 31.2945 64.4007 29.3682 64.4007 27.8128C64.4007 27.3298 64.3592 26.8856 64.2852 26.5148H57.0852ZM110.783 28.1262C110.367 27.0323 109.082 25.0155 106.466 25.0155C103.873 25.0155 101.715 26.9978 101.715 29.9073C101.715 32.6471 103.851 34.7976 106.715 34.7976C109.03 34.7976 110.367 33.4277 110.916 32.6299L109.198 31.5187C108.624 32.3323 107.844 32.8714 106.715 32.8714C105.593 32.8714 104.789 32.3726 104.273 31.3893L111.016 28.6825L110.783 28.1262ZM103.909 29.7549C103.851 27.8689 105.418 26.9029 106.541 26.9029C107.421 26.9029 108.168 27.3298 108.417 27.9408L103.909 29.7549ZM98.4289 34.5001H100.645V20.1251H98.4289V34.5001ZM94.7992 26.1051H94.7252C94.2274 25.533 93.2778 25.0155 92.0748 25.0155C89.5504 25.0155 87.2422 27.166 87.2422 29.9231C87.2422 32.6644 89.5504 34.7976 92.0748 34.7976C93.2778 34.7976 94.2274 34.2758 94.7252 33.6865H94.7992V34.388C94.7992 36.2581 93.7696 37.263 92.1089 37.263C90.7548 37.263 89.9148 36.3142 89.5681 35.5164L87.6407 36.297C88.1963 37.5936 89.6674 39.1892 92.1089 39.1892C94.7074 39.1892 96.9 37.7057 96.9 34.0961V25.313H94.7992V26.1051ZM92.2644 32.8714C90.737 32.8714 89.4585 31.6308 89.4585 29.9231C89.4585 28.1995 90.737 26.9417 92.2644 26.9417C93.7696 26.9417 94.9563 28.1995 94.9563 29.9231C94.9563 31.6308 93.7696 32.8714 92.2644 32.8714ZM121.159 20.1251H115.858V34.5001H118.069V29.0534H121.159C123.614 29.0534 126.021 27.3298 126.021 24.5885C126.021 21.8487 123.608 20.1251 121.159 20.1251ZM121.217 27.0538H118.069V22.1247H121.217C122.867 22.1247 123.81 23.4543 123.81 24.5885C123.81 25.7011 122.867 27.0538 121.217 27.0538ZM134.881 24.9881C133.284 24.9881 131.623 25.6724 130.94 27.189L132.901 27.9868C133.324 27.189 134.1 26.9302 134.921 26.9302C136.067 26.9302 137.23 27.5986 137.248 28.7788V28.9298C136.848 28.7055 135.992 28.3735 134.938 28.3735C132.826 28.3735 130.673 29.5019 130.673 31.6078C130.673 33.5341 132.404 34.7746 134.349 34.7746C135.836 34.7746 136.657 34.1235 137.173 33.3659H137.248V34.4771H139.383V28.9628C139.383 26.4142 137.421 24.9881 134.881 24.9881ZM134.614 32.8656C133.891 32.8656 132.884 32.5178 132.884 31.6481C132.884 30.5355 134.14 30.1085 135.227 30.1085C136.201 30.1085 136.657 30.317 137.248 30.5915C137.075 31.9226 135.894 32.8656 134.614 32.8656ZM147.161 25.303L144.62 31.5345H144.544L141.918 25.303H139.534L143.481 34.0113L141.229 38.8571H143.538L149.62 25.303H147.161ZM127.236 34.5001H129.453V20.1251H127.236V34.5001Z" fill="white"/>
<defs>
<linearGradient id="paint0_linear_2966_1307" x1="26.3367" y1="35.9837" x2="7.04568" y2="16.1025" gradientUnits="userSpaceOnUse">
<stop stop-color="#00A0FF"/>
<stop offset="0.0066" stop-color="#00A1FF"/>
<stop offset="0.2601" stop-color="#00BEFF"/>
<stop offset="0.5122" stop-color="#00D2FF"/>
<stop offset="0.7604" stop-color="#00DFFF"/>
<stop offset="1" stop-color="#00E3FF"/>
</linearGradient>
<linearGradient id="paint1_linear_2966_1307" x1="40.6" y1="22.9983" x2="11.9222" y2="22.9983" gradientUnits="userSpaceOnUse">
<stop stop-color="#FFE000"/>
<stop offset="0.4087" stop-color="#FFBD00"/>
<stop offset="0.7754" stop-color="#FFA500"/>
<stop offset="1" stop-color="#FF9C00"/>
</linearGradient>
<linearGradient id="paint2_linear_2966_1307" x1="29.9246" y1="20.3594" x2="3.76443" y2="-6.60115" gradientUnits="userSpaceOnUse">
<stop stop-color="#FF3A44"/>
<stop offset="1" stop-color="#C31162"/>
</linearGradient>
<linearGradient id="paint3_linear_2966_1307" x1="9.14865" y1="45.7974" x2="20.8303" y2="33.7584" gradientUnits="userSpaceOnUse">
<stop stop-color="#32A071"/>
<stop offset="0.0685" stop-color="#2DA771"/>
<stop offset="0.4762" stop-color="#15CF74"/>
<stop offset="0.8009" stop-color="#06E775"/>
<stop offset="1" stop-color="#00F076"/>
</linearGradient>
</defs>
</svg>
