<svg width="49" height="49" viewBox="0 0 49 49" fill="none" xmlns="http://www.w3.org/2000/svg">
<rect x="0.5" y="0.348633" width="48" height="48" rx="24" fill="#B81414"/>
<path d="M29.484 18.2447C29.2625 18.2447 29.0459 18.3104 28.8618 18.4335C28.6776 18.5565 28.534 18.7315 28.4493 18.9361C28.3645 19.1408 28.3423 19.366 28.3855 19.5832C28.4287 19.8005 28.5354 20 28.692 20.1567C28.8487 20.3133 29.0482 20.42 29.2655 20.4632C29.4828 20.5064 29.7079 20.4842 29.9126 20.3995C30.1173 20.3147 30.2922 20.1711 30.4152 19.987C30.5383 19.8028 30.604 19.5862 30.604 19.3647C30.604 19.0677 30.486 18.7828 30.276 18.5728C30.0659 18.3627 29.781 18.2447 29.484 18.2447ZM33.7773 20.5034C33.7592 19.729 33.6141 18.9628 33.348 18.2354C33.1107 17.613 32.7413 17.0494 32.2653 16.5834C31.8032 16.105 31.2383 15.7379 30.6133 15.51C29.8878 15.2358 29.1208 15.0874 28.3453 15.0714C27.356 15.0154 27.0387 15.0154 24.5 15.0154C21.9613 15.0154 21.644 15.0154 20.6547 15.0714C19.8792 15.0874 19.1122 15.2358 18.3867 15.51C17.7629 15.7403 17.1985 16.107 16.7347 16.5834C16.2563 17.0455 15.8892 17.6105 15.6613 18.2354C15.3871 18.9609 15.2387 19.7279 15.2227 20.5034C15.1667 21.4927 15.1667 21.81 15.1667 24.3487C15.1667 26.8874 15.1667 27.2047 15.2227 28.194C15.2387 28.9695 15.3871 29.7365 15.6613 30.462C15.8892 31.087 16.2563 31.6519 16.7347 32.114C17.1985 32.5905 17.7629 32.9572 18.3867 33.1874C19.1122 33.4616 19.8792 33.61 20.6547 33.626C21.644 33.682 21.9613 33.682 24.5 33.682C27.0387 33.682 27.356 33.682 28.3453 33.626C29.1208 33.61 29.8878 33.4616 30.6133 33.1874C31.2383 32.9595 31.8032 32.5924 32.2653 32.114C32.7434 31.6498 33.1131 31.0857 33.348 30.462C33.6141 29.7346 33.7592 28.9684 33.7773 28.194C33.7773 27.2047 33.8333 26.8874 33.8333 24.3487C33.8333 21.81 33.8333 21.4927 33.7773 20.5034ZM32.0973 28.082C32.0905 28.6745 31.9832 29.2615 31.78 29.818C31.631 30.2242 31.3916 30.5912 31.08 30.8914C30.7773 31.1999 30.411 31.4387 30.0067 31.5914C29.4501 31.7946 28.8631 31.9019 28.2707 31.9087C27.3373 31.9554 26.992 31.9647 24.5373 31.9647C22.0827 31.9647 21.7373 31.9647 20.804 31.9087C20.1888 31.9202 19.5763 31.8255 18.9933 31.6287C18.6067 31.4683 18.2573 31.23 17.9667 30.9287C17.6569 30.6289 17.4205 30.2616 17.276 29.8554C17.0481 29.2909 16.9217 28.6905 16.9027 28.082C16.9027 27.1487 16.8467 26.8034 16.8467 24.3487C16.8467 21.894 16.8467 21.5487 16.9027 20.6154C16.9068 20.0097 17.0174 19.4095 17.2293 18.842C17.3936 18.4481 17.6458 18.0969 17.9667 17.8154C18.2502 17.4945 18.6007 17.2396 18.9933 17.0687C19.5622 16.8634 20.1619 16.7561 20.7667 16.7514C21.7 16.7514 22.0453 16.6954 24.5 16.6954C26.9547 16.6954 27.3 16.6954 28.2333 16.7514C28.8258 16.7582 29.4128 16.8655 29.9693 17.0687C30.3935 17.2261 30.7741 17.482 31.08 17.8154C31.3859 18.1021 31.6248 18.4526 31.78 18.842C31.9874 19.4104 32.0948 20.0104 32.0973 20.6154C32.144 21.5487 32.1533 21.894 32.1533 24.3487C32.1533 26.8034 32.144 27.1487 32.0973 28.082ZM24.5 19.5607C23.5534 19.5626 22.6286 19.8449 21.8425 20.3722C21.0563 20.8994 20.4441 21.6478 20.0831 22.5229C19.7222 23.3979 19.6287 24.3603 19.8145 25.2885C20.0003 26.2167 20.457 27.0689 21.127 27.7376C21.797 28.4063 22.6501 28.8614 23.5787 29.0454C24.5072 29.2294 25.4694 29.134 26.3438 28.7713C27.2181 28.4087 27.9653 27.795 28.491 27.0078C29.0168 26.2206 29.2973 25.2953 29.2973 24.3487C29.2986 23.7188 29.1753 23.0949 28.9345 22.5128C28.6937 21.9307 28.3403 21.402 27.8944 20.957C27.4486 20.5121 26.9191 20.1596 26.3366 19.92C25.7541 19.6803 25.1299 19.5583 24.5 19.5607ZM24.5 27.4567C23.8853 27.4567 23.2844 27.2744 22.7733 26.9329C22.2622 26.5914 21.8638 26.106 21.6286 25.5381C21.3933 24.9702 21.3318 24.3453 21.4517 23.7424C21.5716 23.1395 21.8676 22.5857 22.3023 22.151C22.737 21.7164 23.2908 21.4204 23.8937 21.3004C24.4965 21.1805 25.1215 21.2421 25.6894 21.4773C26.2573 21.7125 26.7427 22.1109 27.0842 22.622C27.4257 23.1331 27.608 23.734 27.608 24.3487C27.608 24.7569 27.5276 25.161 27.3714 25.5381C27.2152 25.9152 26.9863 26.2578 26.6977 26.5464C26.4091 26.835 26.0665 27.0639 25.6894 27.2201C25.3123 27.3763 24.9081 27.4567 24.5 27.4567Z" fill="white"/>
</svg>
