<svg width="61" height="61" viewBox="0 0 61 61" fill="none" xmlns="http://www.w3.org/2000/svg">
<path d="M14.75 35.4929C10.5844 37.3305 8 39.8913 8 42.7236C8 48.3155 18.0736 52.8486 30.5 52.8486C42.9264 52.8486 53 48.3155 53 42.7236C53 39.8913 50.4156 37.3305 46.25 35.4929M44 21.3486C44 30.492 33.875 34.8486 30.5 41.5986C27.125 34.8486 17 30.492 17 21.3486C17 13.8928 23.0442 7.84863 30.5 7.84863C37.9558 7.84863 44 13.8928 44 21.3486ZM32.75 21.3486C32.75 22.5913 31.7426 23.5986 30.5 23.5986C29.2574 23.5986 28.25 22.5913 28.25 21.3486C28.25 20.106 29.2574 19.0986 30.5 19.0986C31.7426 19.0986 32.75 20.106 32.75 21.3486Z" stroke="white" stroke-width="5" stroke-linecap="round" stroke-linejoin="round"/>
</svg>
