<svg width="48" height="48" viewBox="0 0 48 48" fill="none" xmlns="http://www.w3.org/2000/svg">
<path d="M24.0047 3.99988H23.9962C12.9528 3.99988 4.00043 12.9523 4.00043 23.9956V24.0042C4.00043 35.0475 12.9528 43.9999 23.9962 43.9999H24.0047C35.048 43.9999 44.0004 35.0475 44.0004 24.0042V23.9956C44.0004 12.9523 35.048 3.99988 24.0047 3.99988Z" stroke="#887040" stroke-width="3.2" stroke-miterlimit="10"/>
<path d="M33.9997 21.6176V32.5488C34.0007 32.7399 33.9639 32.9292 33.8915 33.106C33.819 33.2828 33.7124 33.4436 33.5777 33.579C33.4429 33.7144 33.2827 33.8219 33.1063 33.8953C32.9299 33.9686 32.7407 34.0063 32.5497 34.0063H21.6185C21.4274 34.0063 21.2382 33.9686 21.0618 33.8953C20.8854 33.8219 20.7252 33.7144 20.5905 33.579C20.4558 33.4436 20.3491 33.2828 20.2767 33.106C20.2043 32.9292 20.1675 32.7399 20.1685 32.5488V27.8383H26.6746C26.9829 27.8363 27.2779 27.713 27.4959 27.495C27.7138 27.2771 27.8372 26.982 27.8391 26.6738V20.1676H32.5497C32.7404 20.1666 32.9294 20.2035 33.1058 20.276C33.2821 20.3485 33.4424 20.4553 33.5772 20.5901C33.7121 20.7249 33.8188 20.8852 33.8913 21.0615C33.9639 21.2379 34.0007 21.4269 33.9997 21.6176Z" stroke="#887040" stroke-width="3.2" stroke-miterlimit="10"/>
<path d="M27.87 20.1676V26.6738C27.868 26.982 27.7447 27.2771 27.5268 27.495C27.3088 27.713 27.0137 27.8363 26.7055 27.8383H20.1994V21.6176C20.1984 21.4269 20.2352 21.2379 20.3077 21.0615C20.3802 20.8852 20.487 20.7249 20.6218 20.5901C20.7567 20.4553 20.9169 20.3485 21.0933 20.276C21.2697 20.2035 21.4587 20.1666 21.6493 20.1676H27.87Z" fill="#887040" stroke="#887040" stroke-width="3.2" stroke-miterlimit="10"/>
<path d="M27.8387 18.1546V20.1681V15.1645C27.8387 14.8557 27.7161 14.5595 27.4977 14.3411C27.2793 14.1227 26.9831 14 26.6742 14H15.1645C15.0113 13.999 14.8594 14.0285 14.7177 14.0866C14.576 14.1448 14.4472 14.2305 14.3389 14.3389C14.2305 14.4472 14.1448 14.576 14.0866 14.7177C14.0285 14.8594 13.999 15.0113 14 15.1645V26.6743C14 26.9831 14.1227 27.2793 14.3411 27.4977C14.5595 27.7161 14.8557 27.8387 15.1645 27.8387H20.1681" stroke="#887040" stroke-width="3.2" stroke-miterlimit="10"/>
</svg>
