<svg width="48" height="48" viewBox="0 0 48 48" fill="none" xmlns="http://www.w3.org/2000/svg">
<mask id="mask0_2215_29362" style="mask-type:alpha" maskUnits="userSpaceOnUse" x="0" y="0" width="48" height="48">
<rect width="48" height="48" fill="#D9D9D9"/>
</mask>
<g mask="url(#mask0_2215_29362)">
<path d="M14.1996 22.7014C14.6663 21.7681 15.1496 20.868 15.6496 20.0014C16.1496 19.1347 16.6996 18.268 17.2996 17.4014L14.4996 16.8514L10.2996 21.0514L14.1996 22.7014ZM38.2996 8.95138C35.9663 9.01805 33.4746 9.70138 30.8246 11.0014C28.1746 12.3014 25.7663 14.0347 23.5996 16.2014C22.1996 17.6014 20.9496 19.1014 19.8496 20.7014C18.7496 22.3014 17.9329 23.8014 17.3996 25.2014L23.0996 30.8514C24.4996 30.3181 25.9996 29.5014 27.5996 28.4014C29.1996 27.3014 30.6996 26.0514 32.0996 24.6514C34.2663 22.4847 35.9996 20.0847 37.2996 17.4514C38.5996 14.818 39.2829 12.3347 39.3496 10.0014C39.3496 9.86805 39.3246 9.73472 39.2746 9.60138C39.2246 9.46805 39.1496 9.35138 39.0496 9.25138C38.9496 9.15138 38.8329 9.07638 38.6996 9.02638C38.5663 8.97638 38.4329 8.95138 38.2996 8.95138ZM27.2996 20.9514C26.5329 20.1847 26.1496 19.243 26.1496 18.1264C26.1496 17.0097 26.5329 16.068 27.2996 15.3014C28.0663 14.5347 29.0163 14.1514 30.1496 14.1514C31.2829 14.1514 32.2329 14.5347 32.9996 15.3014C33.7663 16.068 34.1496 17.0097 34.1496 18.1264C34.1496 19.243 33.7663 20.1847 32.9996 20.9514C32.2329 21.7181 31.2829 22.1014 30.1496 22.1014C29.0163 22.1014 28.0663 21.7181 27.2996 20.9514ZM25.5996 34.0514L27.2496 38.0014L31.4496 33.8014L30.8996 31.0014C30.0329 31.6014 29.1663 32.143 28.2996 32.6264C27.4329 33.1097 26.5329 33.5847 25.5996 34.0514ZM43.1496 7.35138C43.4163 11.018 42.8163 14.593 41.3496 18.0764C39.8829 21.5597 37.5663 24.8847 34.3996 28.0514L35.3996 33.0014C35.5329 33.668 35.4996 34.3181 35.2996 34.9514C35.0996 35.5847 34.7663 36.1347 34.2996 36.6014L27.9996 42.9014C27.4996 43.4014 26.8996 43.593 26.1996 43.4764C25.4996 43.3597 25.0163 42.9681 24.7496 42.3014L21.6996 35.1514L13.1496 26.6014L5.99961 23.5514C5.33294 23.2847 4.93294 22.8014 4.79961 22.1014C4.66628 21.4014 4.84961 20.8014 5.34961 20.3014L11.6496 14.0014C12.1163 13.5347 12.6746 13.2014 13.3246 13.0014C13.9746 12.8014 14.6329 12.768 15.2996 12.9014L20.2496 13.9014C23.4163 10.7347 26.7413 8.41805 30.2246 6.95138C33.7079 5.48472 37.2829 4.88472 40.9496 5.15138C41.2163 5.18472 41.4829 5.25972 41.7496 5.37638C42.0163 5.49305 42.2496 5.65138 42.4496 5.85138C42.6496 6.05138 42.8079 6.28472 42.9246 6.55138C43.0413 6.81805 43.1163 7.08472 43.1496 7.35138ZM7.84961 31.9514C9.01628 30.7847 10.4413 30.193 12.1246 30.1764C13.8079 30.1597 15.2329 30.7347 16.3996 31.9014C17.5663 33.068 18.1413 34.493 18.1246 36.1764C18.1079 37.8597 17.5163 39.2847 16.3496 40.4514C15.5163 41.2847 14.1246 42.0014 12.1746 42.6014C10.2246 43.2014 7.53294 43.7347 4.09961 44.2014C4.56628 40.768 5.09961 38.0764 5.69961 36.1264C6.29961 34.1764 7.01628 32.7847 7.84961 31.9514ZM10.6996 34.7514C10.3663 35.0847 10.0329 35.6931 9.69961 36.5764C9.36628 37.4597 9.13294 38.3514 8.99961 39.2514C9.89961 39.118 10.7913 38.893 11.6746 38.5764C12.5579 38.2597 13.1663 37.9347 13.4996 37.6014C13.8996 37.2014 14.1163 36.7181 14.1496 36.1514C14.1829 35.5847 13.9996 35.1014 13.5996 34.7014C13.1996 34.3014 12.7163 34.1097 12.1496 34.1264C11.5829 34.143 11.0996 34.3514 10.6996 34.7514Z" fill="#405887"/>
</g>
</svg>
