<svg width="49" height="49" viewBox="0 0 49 49" fill="none" xmlns="http://www.w3.org/2000/svg">
<g clip-path="url(#clip0_2215_29633)">
<path d="M24.5001 48.3482C37.7548 48.3482 48.4999 37.6031 48.4999 24.3484C48.4999 11.0937 37.7548 0.348633 24.5001 0.348633C11.2454 0.348633 0.50032 11.0937 0.50032 24.3484C0.50032 37.6031 11.2454 48.3482 24.5001 48.3482Z" fill="#1DA1F2"/>
<path d="M33.8333 18.1445C33.1343 18.4542 32.3928 18.6573 31.6336 18.7469C32.4334 18.2685 33.032 17.5156 33.3178 16.6285C32.566 17.0746 31.7435 17.3888 30.8858 17.5576C30.5274 17.1754 30.0943 16.8708 29.6133 16.6628C29.1323 16.4549 28.6138 16.3479 28.0897 16.3486C25.9751 16.3486 24.26 18.0637 24.26 20.1783C24.26 20.4785 24.294 20.7707 24.3597 21.0511C21.1769 20.8915 18.3549 19.3669 16.4658 17.0492C16.1252 17.6337 15.9462 18.2983 15.9472 18.9748C15.9472 20.3031 16.6238 21.4758 17.6508 22.1624C17.0426 22.1437 16.4478 21.9792 15.9163 21.6829L15.9161 21.7315C15.9161 23.587 17.2367 25.1347 18.9883 25.4863C18.6596 25.576 18.3203 25.6212 17.9796 25.6208C17.7322 25.6208 17.4926 25.5971 17.259 25.5526C17.7462 27.0737 19.1603 28.181 20.8365 28.2122C19.4798 29.277 17.8043 29.8544 16.0797 29.8515C15.7713 29.8515 15.4657 29.8335 15.1666 29.7978C16.9174 30.9235 18.9553 31.5209 21.0367 31.5186C28.0809 31.5186 31.9332 25.6831 31.9332 20.6219C31.9332 20.4559 31.9294 20.2906 31.922 20.1266C32.6721 19.5851 33.3193 18.9138 33.8333 18.1445Z" fill="white"/>
</g>
<defs>
<clipPath id="clip0_2215_29633">
<rect width="48" height="48" fill="white" transform="translate(0.5 0.348633)"/>
</clipPath>
</defs>
</svg>
