<svg width="724" height="506" viewBox="0 0 724 506" fill="none" xmlns="http://www.w3.org/2000/svg">
<path d="M122.04 426.249C90.5209 381.26 43.6461 325.967 56.0383 230.668C70.1816 121.765 233.974 -51.1193 409.148 78.5272C477.979 129.51 481.75 245.687 573.749 215.919C665.747 186.151 727.641 417.292 589.441 447.262C451.241 477.232 181.846 511.648 122.04 426.249Z" fill="#F5F6FA"/>
<path d="M536.958 346.938C529.752 341.684 476.816 343.637 471.899 346.938C466.915 350.238 477.489 359.599 494.192 369.028C501.196 373.002 505.506 376.908 515.07 369.634C524.633 362.428 541.807 350.44 536.958 346.938Z" fill="#CCE9FF"/>
<path d="M497.222 365.863H511.298V429.642H497.222V365.863ZM460.046 440.956H546.791C548.34 440.956 549.552 439.744 549.552 438.195C549.552 436.848 548.542 435.703 547.263 435.501L511.366 429.709H497.29L459.709 435.501C458.362 435.703 457.352 436.848 457.352 438.195C457.285 439.677 458.497 440.956 460.046 440.956ZM536.958 163.412C493.249 161.526 480.453 201.397 477.961 227.057C475.469 252.649 468.599 275.817 448.529 286.593C428.392 297.369 409.4 302.285 420.984 319.661C432.568 337.037 472.371 354.548 508.133 353.672C543.895 352.864 580.466 333.67 590.433 282.417C600.333 231.165 580.264 165.298 536.958 163.412Z" fill="#CCE9FF"/>
<path d="M498.704 431.73L501.331 441.159L488.602 444.997L484.561 433.413L498.704 431.73ZM421.59 424.927V432.471H432.904L434.184 424.927H421.59ZM508.47 206.38L491.363 248.541L490.959 249.484C489.949 251.976 487.524 253.525 484.965 253.525L436.339 253.188C434.386 253.188 432.77 251.572 432.77 249.618C432.77 247.867 434.117 246.386 435.8 246.116L484.022 239.045L477.624 244.028L489.141 199.982C490.555 194.527 496.145 191.227 501.6 192.709C507.055 194.123 510.355 199.713 508.874 205.168C508.806 205.572 508.604 205.976 508.47 206.38Z" fill="#EFACA5"/>
<path d="M441.66 245.241L425.025 244.904C420.916 244.904 417.616 248.608 417.616 253.188H441.862L441.66 245.241Z" fill="#E7AD87"/>
<path d="M481.598 211.499L508.2 217.965L512.578 194.258C513.723 187.86 509.345 181.798 502.812 180.855C497.29 180.047 492.037 183.145 490.151 188.331L481.598 211.499Z" fill="#2A94F4"/>
<path d="M509.076 257.633L427.112 299.255C419.502 303.093 414.922 311.108 415.394 319.661L421.59 424.995H434.184L451.156 312.32L515.003 267.533L509.076 257.633ZM494.596 113.776C494.596 113.776 521.468 101.855 535.881 140.379C549.283 176.074 534.399 169.069 512.713 169.204C495.067 169.339 463.885 186.041 471.765 164.018C477.422 148.326 474.459 138.358 474.459 138.358L494.596 113.776Z" fill="#0B4870"/>
<path d="M512.78 170.012L500.994 175.265C493.99 178.363 489.477 185.368 489.545 193.045C489.747 208.536 493.249 246.924 506.315 261.674H546.185C552.381 234.465 548.812 192.641 548.812 192.641C549.216 182.404 541.673 173.514 531.503 172.302L512.78 170.012Z" fill="#2A94F4"/>
<path d="M513.925 182.741C509.749 183.212 505.978 180.249 505.506 176.141L502.206 150.818L517.36 149.067L520.593 174.188C521.131 178.431 518.101 182.27 513.925 182.741Z" fill="#EFACA5"/>
<path d="M501.398 169.675L500.792 169.743C490.69 171.09 481.463 163.951 480.116 153.848L477.22 131.758L514.396 126.909L517.292 148.999C518.572 159.102 511.5 168.396 501.398 169.675Z" fill="#FAB9AF"/>
<path d="M518.505 140.513L515.339 147.114C515.339 147.114 511.096 150.75 509.884 141.591C508.874 133.778 503.216 135.125 503.216 135.125C503.216 135.125 483.82 149.807 472.438 139.705C463.481 131.758 477.961 117.211 494.596 113.776L516.417 123.272L518.505 140.513Z" fill="#0B4870"/>
<path d="M512.982 146.238C513.454 150.279 514.464 153.242 517.831 152.838C517.831 152.838 521.199 149.471 521.67 144.689C522.142 140.648 521.535 137.819 518.168 138.223C514.868 138.628 512.511 142.197 512.982 146.238Z" fill="#FAB9AF"/>
<path d="M546.185 261.674H506.315L442.535 300.197C434.992 304.71 432.029 314.139 435.598 322.22L484.561 433.413L498.704 431.73L472.371 324.443C494.461 323.5 535.409 320.2 546.118 308.212C564.302 288.007 546.185 261.674 546.185 261.674Z" fill="#0B4870"/>
<path d="M410.275 191.9L433.039 252.986H359.157L338.145 195.403C337.538 193.652 338.818 191.833 340.636 191.833H410.275V191.9Z" fill="#887040"/>
<path d="M410.275 191.9H413.845C415.73 191.9 417.414 193.113 418.088 194.864L439.504 252.986H433.039L410.275 191.9ZM360.908 258.913H433.039V253.053H359.359V257.364C359.359 258.172 360.033 258.913 360.908 258.913ZM433.039 258.913H478.634C480.251 258.913 481.598 257.566 481.598 255.949C481.598 254.333 480.251 252.986 478.634 252.986H433.039V258.913Z" fill="#887040"/>
<path d="M391.754 222.275C393.168 226.518 391.485 230.828 387.983 231.973C384.48 233.118 380.574 230.626 379.16 226.383C377.746 222.14 379.429 217.83 382.931 216.685C386.434 215.54 390.407 218.032 391.754 222.275Z" fill="white"/>
<path d="M539.652 205.236L522.546 248.204L522.141 249.147C521.131 251.706 518.639 253.255 516.08 253.255L467.387 252.919C465.434 252.919 463.817 251.302 463.817 249.282C463.817 247.463 465.164 245.982 466.915 245.78L515.07 238.641L508.604 243.692L520.054 198.837C521.468 193.315 527.058 190.015 532.581 191.429C538.103 192.843 541.403 198.433 539.989 203.956C539.989 204.36 539.787 204.831 539.652 205.236Z" fill="#FAB9AF"/>
<path d="M472.707 244.904L456.072 244.567C451.964 244.567 448.664 248.339 448.664 252.986H472.91L472.707 244.904Z" fill="#FAB9AF"/>
<path d="M512.645 210.556L539.248 217.156L543.626 192.978C544.771 186.513 540.393 180.316 533.86 179.374C528.338 178.565 523.084 181.731 521.199 186.984L512.645 210.556Z" fill="#31A1F4"/>
<path d="M480.251 435.973L474.054 442.101L460.113 445.469C458.699 445.806 457.487 446.883 457.015 448.298L456.274 450.318C455.938 451.328 456.678 452.338 457.756 452.338L502.678 451.261C504.159 451.261 505.304 449.981 505.17 448.5L501.6 435.771L494.798 437.387C492.508 438.128 490.016 437.858 487.996 436.714L485.571 435.299C483.887 434.289 481.732 434.558 480.251 435.973ZM415.865 427.15L409.669 433.279L395.728 436.646C394.313 436.983 393.101 438.06 392.63 439.475L391.889 441.495C391.552 442.505 392.293 443.516 393.371 443.516L433.982 442.64C435.464 442.64 436.609 441.361 436.474 439.879L435.396 426.881L430.412 428.564C428.123 429.305 425.631 429.036 423.61 427.891L421.186 426.476C419.435 425.466 417.279 425.736 415.865 427.15Z" fill="#0B4870"/>
<path d="M245.944 452.339C246.079 452.339 246.281 452.339 246.416 452.271C247.965 452.002 249.042 450.722 248.773 449.308L212.068 269.958C211.798 268.544 210.317 267.601 208.7 267.87C207.151 268.14 206.074 269.419 206.343 270.833L243.115 450.183C243.318 451.463 244.53 452.339 245.944 452.339ZM151.252 452.339C152.666 452.339 153.878 451.463 154.08 450.183L193.277 270.833C193.547 269.419 192.469 268.072 190.92 267.87C189.304 267.668 187.822 268.611 187.553 269.958L148.356 449.308C148.086 450.722 149.164 452.069 150.713 452.271C150.915 452.339 151.05 452.339 151.252 452.339Z" fill="#0B4870"/>
<path d="M512.134 274.621L167.51 274.621V257.919L512.134 257.919V274.621Z" fill="#0B4870"/>
<path d="M233.789 389.326H163.14V384.274H233.789V389.326Z" fill="#0B4870"/>
<path d="M509.278 452.339C509.413 452.339 509.615 452.339 509.75 452.271C511.299 452.002 512.376 450.722 512.107 449.308L475.469 269.958C475.2 268.544 473.718 267.601 472.102 267.87C470.553 268.14 469.475 269.419 469.744 270.833L506.449 450.183C506.651 451.463 507.931 452.339 509.278 452.339ZM414.586 452.339C416 452.339 417.212 451.463 417.414 450.183L456.611 270.833C456.881 269.419 455.803 268.072 454.254 267.87C452.638 267.668 451.156 268.611 450.887 269.958L411.69 449.308C411.42 450.722 412.498 452.069 414.047 452.271C414.249 452.339 414.384 452.339 414.586 452.339Z" fill="#0B4870"/>
<path d="M497.158 389.326H426.509V384.274H497.158V389.326Z" fill="#0B4870"/>
<path d="M196.847 193.517H155.831C151.925 193.517 148.76 190.352 148.76 186.445V145.43C148.76 141.524 151.925 138.358 155.831 138.358H196.847C200.753 138.358 203.918 141.524 203.918 145.43V186.445C203.918 190.352 200.753 193.517 196.847 193.517Z" fill="#887040"/>
<path opacity="0.39" d="M189.91 186.041H153.946C150.848 186.041 148.288 183.482 148.288 180.384V144.42C148.288 141.322 150.848 138.762 153.946 138.762H189.91C193.008 138.762 195.567 141.322 195.567 144.42V180.384C195.567 183.482 193.075 186.041 189.91 186.041Z" fill="white"/>
<path d="M181.357 172.639L179.336 166.914H169.234L167.213 172.639H160.883L170.715 148.461H177.922L187.755 172.639H181.357ZM177.989 162.671C176.103 157.485 175.093 154.522 174.824 153.849C174.622 153.175 174.42 152.636 174.352 152.232C173.948 153.647 172.736 157.081 170.783 162.671H177.989Z" fill="white"/>
<path d="M296.995 79.1587H255.912C252.006 79.1587 248.84 75.9933 248.84 72.0871V31.0716C248.84 27.1654 252.006 24 255.912 24H296.927C300.833 24 303.999 27.1654 303.999 31.0716V72.0871C303.999 75.9933 300.833 79.1587 296.995 79.1587Z" fill="#887040"/>
<path opacity="0.39" d="M290.596 71.683H254.632C251.534 71.683 248.975 69.1237 248.975 66.0257V30.0614C248.975 26.9634 251.534 24.4041 254.632 24.4041H290.596C293.694 24.4041 296.254 26.9634 296.254 30.0614V66.0257C296.254 69.1237 293.762 71.683 290.596 71.683Z" fill="white"/>
<path d="M282.717 51.6804C282.717 53.8355 281.841 55.5866 280.023 56.7989C278.204 58.0785 275.712 58.6847 272.48 58.6847C269.516 58.6847 266.89 58.2132 264.6 57.203V52.4886C266.486 53.2294 268.035 53.7008 269.382 54.0376C270.729 54.3743 271.873 54.509 272.951 54.509C274.231 54.509 275.241 54.307 275.914 53.8355C276.588 53.4314 276.925 52.758 276.925 51.9498C276.925 51.4783 276.79 51.0742 276.453 50.6701C276.116 50.3334 275.712 49.9293 275.106 49.5926C274.5 49.2558 273.288 48.717 271.537 47.9762C269.853 47.3027 268.573 46.6292 267.698 45.9557C266.822 45.3496 266.149 44.6087 265.677 43.7332C265.139 42.8577 264.937 41.9148 264.937 40.7699C264.937 38.6147 265.745 36.9983 267.428 35.7187C269.112 34.5064 271.402 33.9003 274.365 33.9003C275.78 33.9003 277.194 34.035 278.474 34.3717C279.753 34.7085 281.168 35.1126 282.582 35.6514L280.696 39.6249C279.215 39.0861 278.002 38.7494 276.992 38.5474C276.049 38.3453 275.039 38.2106 274.163 38.2106C273.018 38.2106 272.21 38.4127 271.604 38.8841C270.998 39.3555 270.729 39.8943 270.729 40.6352C270.729 41.1066 270.863 41.5107 271.065 41.7801C271.335 42.1168 271.671 42.4536 272.21 42.723C272.749 42.9924 273.961 43.5985 275.914 44.4067C278.541 45.4843 280.292 46.5619 281.235 47.6394C282.245 48.7844 282.717 50.064 282.717 51.6804Z" fill="white"/>
<path d="M573.462 257.7H532.446C528.54 257.7 525.374 254.535 525.374 250.629V209.613C525.374 205.707 528.54 202.542 532.446 202.542H573.462C577.368 202.542 580.533 205.707 580.533 209.613V250.629C580.533 254.535 577.368 257.7 573.462 257.7Z" fill="#887040"/>
<path opacity="0.39" d="M567.131 250.225H531.166C528.068 250.225 525.509 247.666 525.509 244.567V208.603C525.509 205.505 528.068 202.946 531.166 202.946H567.131C570.229 202.946 572.788 205.505 572.788 208.603V244.567C572.788 247.733 570.229 250.225 567.131 250.225Z" fill="white"/>
<path d="M548.61 236.89H542.818V212.846H558.712V217.022H548.61V223.218H558.039V227.393H548.61V236.89Z" fill="white"/>
<path d="M490.218 123.003H449.203C445.297 123.003 442.131 119.837 442.131 115.931V74.9157C442.131 71.0095 445.297 67.8441 449.203 67.8441H490.218C494.125 67.8441 497.29 71.0095 497.29 74.9157V115.931C497.29 119.837 494.125 123.003 490.218 123.003Z" fill="#887040"/>
<path opacity="0.39" d="M483.618 115.123H447.654C444.556 115.123 441.997 112.564 441.997 109.466V73.5014C441.997 70.4033 444.556 67.8441 447.654 67.8441H483.618C486.716 67.8441 489.276 70.4033 489.276 73.5014V109.466C489.276 112.564 486.784 115.123 483.618 115.123Z" fill="white"/>
<path d="M481.059 89.5304C481.059 93.504 479.779 96.5347 477.153 98.6225C474.526 100.71 470.822 101.788 465.905 101.788H458.026V77.7444H466.714C471.226 77.7444 474.795 78.7546 477.287 80.8424C479.779 82.8629 481.059 85.7589 481.059 89.5304ZM474.93 89.6651C474.93 84.4792 472.304 81.92 467.05 81.92H463.885V97.6123H466.444C472.102 97.5449 474.93 94.9183 474.93 89.6651Z" fill="white"/>
</svg>
